<!DOCTYPE svg PUBLIC "-//W3C//DTD SVG 1.1//EN" "http://www.w3.org/Graphics/SVG/1.1/DTD/svg11.dtd">
<!-- Uploaded to: SVG Repo, www.svgrepo.com, Transformed by: SVG Repo Mixer Tools -->
<svg fill="#fff" height="800px" width="800px" version="1.1" id="Layer_1" xmlns="http://www.w3.org/2000/svg" xmlns:xlink="http://www.w3.org/1999/xlink" viewBox="0 0 269.308 269.308" xml:space="preserve" stroke="#fff">
<g id="SVGRepo_bgCarrier" stroke-width="0"/>
<g id="SVGRepo_tracerCarrier" stroke-linecap="round" stroke-linejoin="round"/>
<g id="SVGRepo_iconCarrier"> <g> <g> <g> <path d="M269.308,216.413h-17.659l-19.952-30.165l11.466-13.479l-8.672-10.194c0.338-1.35,0.47-2.759,0.356-4.19 c-0.272-3.44-1.864-6.56-4.476-8.784s-5.948-3.288-9.388-3.024c-3.44,0.276-6.56,1.864-8.784,4.476l-26.156,30.71l-16.665-81.593 l87.805-15.574c0.824-0.144,1.456-0.808,1.568-1.636s-0.324-1.636-1.08-1.992L158.538,33.95c0.518-0.779,0.658-1.778,0.414-2.973 l-1.148-5.608c-0.368-1.808-1.428-3.368-2.976-4.392c-1.158-0.767-2.483-1.161-3.831-1.158l-0.841-4.114 c-0.152-0.744-0.872-1.216-1.62-1.072c-0.744,0.152-1.224,0.88-1.072,1.62l0.842,4.116c-2.979,1.26-4.762,4.5-4.074,7.856 l1.752,6.544c0.096,0.479,0.26,1.08,0.602,1.596l-81.77,78.784c-0.612,0.588-0.764,1.504-0.38,2.256 c0.332,0.652,1,1.048,1.712,1.048c0.112,0,0.224-0.012,0.336-0.032l91.962-16.311l18.463,90.38l-1.716,2.015H17.256 c-7.108,0-12.888,5.784-12.888,12.892c0,3.509,1.412,6.69,3.694,9.016H0v17.468h14.621c-0.318,0.779-0.497,1.638-0.497,2.54 v11.868c0,3.536,2.712,6.412,6.048,6.412h6.752c3.332,0,6.044-2.876,6.04-6.408v-2.144c0-0.544,0.148-1.064,0.428-1.504 l2.94-4.652c1.165-1.84,1.342-4.118,0.528-6.112h194.67c-0.813,1.993-0.635,4.269,0.526,6.108l2.944,4.656 c0.276,0.436,0.424,0.956,0.424,1.5v2.144c0,3.536,2.712,6.412,6.044,6.412h6.752c3.332,0,6.044-2.876,6.048-6.412v-11.872 c0-0.901-0.178-1.758-0.495-2.536h15.535V216.413z M265.436,230.005h-0.172l-4.849-9.724h5.021V230.005z M256.668,230.005 l-4.849-9.724h7.371l4.849,9.724H256.668z M230.884,230.005l-4.849-9.724h7.371l4.849,9.724h-1.179c0,0-0.001,0-0.001,0H230.884z M222.292,230.005l-4.849-9.724h7.367l4.849,9.724H222.292z M213.696,230.005l-4.849-9.724h7.371l4.849,9.724H213.696z M205.1,230.005l-4.849-9.724h7.371l4.849,9.724H205.1z M196.508,230.005l-4.849-9.724h7.367l4.849,9.724H196.508z M226.373,192.507l15.816,23.906h-36.151L226.373,192.507z M242.002,220.281l4.849,9.724h-7.371l-4.849-9.724H242.002z M248.22,230.005h-0.144l-4.849-9.724h7.367l4.849,9.724h-7.222C248.221,230.005,248.22,230.005,248.22,230.005z M248.363,216.413h-2.88l-17.257-26.083l1.621-1.905L248.363,216.413z M202.436,216.413h-11.888l43.076-50.632l5.94,6.984 L202.436,216.413z M164.255,111.34l2.703-3.825l0.67,3.279l-2.703,3.825L164.255,111.34z M163.207,106.208l2.703-3.824 l0.747,3.658l-2.703,3.824L163.207,106.208z M162.34,101.965l2.949-0.603l-2.383,3.372L162.34,101.965z M165.226,116.093 l2.703-3.825l0.705,3.451l-2.703,3.825L165.226,116.093z M148.656,34.133l-1.752-6.544c-0.463-2.261,0.996-4.469,3.249-4.942 c0.006-0.001,0.013-0.001,0.019-0.002c0.007-0.001,0.012-0.004,0.019-0.006c0.273-0.053,0.543-0.082,0.817-0.082 c0.812,0,1.612,0.24,2.308,0.7c0.94,0.62,1.576,1.56,1.8,2.652l1.148,5.608c0.092,0.432,0.084,0.776-0.012,0.916 c-0.064,0.095-0.194,0.18-0.368,0.258l-2.476-1.174c-0.72-0.34-1.576-0.204-2.156,0.352l-2.55,2.457 C148.687,34.263,148.672,34.211,148.656,34.133z M152.082,36.403c0.273-0.087,0.545-0.176,0.846-0.238l0.952-0.177l96.712,45.874 l-33.188,5.887l-37.9-25.335c-0.244-0.164-0.588-0.1-0.76,0.152c-0.168,0.252-0.1,0.592,0.152,0.76l36.949,24.7l-51.99,9.222 l-5.615-27.306c-0.064-0.296-0.364-0.496-0.648-0.428c-0.296,0.06-0.492,0.352-0.428,0.648l5.609,27.278l-50.14,8.894 l23.77-34.656c0.172-0.252,0.108-0.592-0.14-0.764c-0.244-0.172-0.592-0.108-0.764,0.14l-24.383,35.549l-39.093,6.935 L152.082,36.403z M166.231,121.018l2.703-3.825l13.948,68.282l-2.813,3.302L166.231,121.018z M17.256,198.377v-0.004H176.98 l38.168-44.812c1.556-1.824,3.74-2.936,6.148-3.128c2.408-0.176,4.74,0.56,6.564,2.112c1.824,1.552,2.936,3.736,3.128,6.144 c0.192,2.408-0.556,4.74-2.112,6.564L188,213.245c-1.984,2.332-5.012,3.48-8.1,3.052l-0.868,0.048 c-0.212,0.028-0.424,0.064-0.644,0.064H17.256c-4.972,0-9.016-4.044-9.016-9.016S12.284,198.377,17.256,198.377z M3.872,220.281 h13.306c0.026,0,0.052,0.004,0.078,0.004h161.132c0.048,0,0.096-0.003,0.144-0.004h11.901l4.849,9.724H3.872V220.281z M33.14,235.041c0.392,0.712,0.576,1.844-0.08,2.88l-2.94,4.652c-0.672,1.064-1.028,2.3-1.028,3.576v2.144 c0,1.396-0.976,2.536-2.172,2.536h-6.752c-1.2,0-2.172-1.136-2.172-2.536v-11.872c0-1.4,0.972-2.54,2.172-2.54h11.19 C32.397,233.903,32.951,234.698,33.14,235.041z M250.392,236.421v11.872c0,1.396-0.972,2.536-2.172,2.536h-6.752 c-1.2,0-2.172-1.136-2.172-2.536v-2.144c0-1.276-0.356-2.512-1.024-3.572l-2.944-4.652c-0.652-1.036-0.468-2.168-0.076-2.88 c0.192-0.348,0.756-1.164,1.824-1.164h11.144C249.42,233.881,250.392,235.021,250.392,236.421z"/> <path d="M224.976,179.233c-1.772,0-3.212,1.44-3.212,3.212c0,1.772,1.44,3.212,3.212,3.212c1.772,0,3.212-1.44,3.212-3.212 C228.188,180.673,226.748,179.233,224.976,179.233z M224.976,184.009c-0.86,0-1.564-0.7-1.564-1.564 c0-0.86,0.7-1.564,1.564-1.564s1.568,0.704,1.568,1.564C226.544,183.305,225.84,184.009,224.976,184.009z"/> </g> </g> </g> </g>
</svg>