<!DOCTYPE svg PUBLIC "-//W3C//DTD SVG 1.1//EN" "http://www.w3.org/Graphics/SVG/1.1/DTD/svg11.dtd">
<!-- Uploaded to: SVG Repo, www.svgrepo.com, Transformed by: SVG Repo Mixer Tools -->
<svg fill="#fff" height="800px" width="800px" version="1.1" id="Layer_1" xmlns="http://www.w3.org/2000/svg" xmlns:xlink="http://www.w3.org/1999/xlink" viewBox="0 0 258.328 258.328" xml:space="preserve" stroke="#fff">
<g id="SVGRepo_bgCarrier" stroke-width="0"/>
<g id="SVGRepo_tracerCarrier" stroke-linecap="round" stroke-linejoin="round"/>
<g id="SVGRepo_iconCarrier"> <g> <g> <g> <path d="M253.124,142.352c-0.028-0.104-0.068-0.208-0.088-0.312c-0.256,0.004-0.5,0.02-0.752,0.024 c-0.652-0.188-1.324-0.32-2.028-0.32h-5.004V88.592c0-19.804-11.98-35.92-26.704-35.92H39.784 c-14.724,0-26.704,16.112-26.704,35.92v53.148H8.076c-4.452,0-8.076,3.992-8.076,8.9v37.68c0,4.908,3.62,8.9,8.076,8.9h4.912 c0.904,4.828,4.26,8.436,8.276,8.436H33.84c4.016,0,7.368-3.608,8.276-8.436h174.096c0.908,4.828,4.26,8.436,8.276,8.436h12.576 c4.016,0,7.368-3.608,8.272-8.436h4.916c4.452,0,8.076-3.992,8.076-8.9v-37.68C258.324,146.852,256.156,143.632,253.124,142.352z M250.252,145.452c1.596,0,2.984,1.04,3.744,2.568c-0.08-0.024-0.144-0.052-0.228-0.076c-2.42-0.672-5.372-0.78-7.944-0.832 c-10.392-0.204-20.412,0.148-29.76,1.044c-1.396,0.132-2.784,0.28-4.176,0.424c-5.204,0.548-10.588,1.128-16.468,0.996 c-7-0.144-15.636-1.608-19.016-4.124h19.504c1.024,0.064,2.044,0.096,3.052,0.096c0.916,0,1.808-0.056,2.712-0.096H250.252z M21.296,141.74c0.452-10.988,7.56-19.756,16.264-19.756h183.212c8.704,0,15.812,8.768,16.264,19.756H21.296z M108.1,160.408 c-0.256,1.468-0.604,2.992-1.788,4.092c-1.468,1.36-3.448,1.44-4.828,1.288c-2.86-0.336-5.848-2.044-7.256-4.152 c-1.2-1.792-1.848-3.836-2.476-5.812c-0.644-2.02-1.308-4.112-2.56-5.996c-1.196-1.8-2.828-3.212-4.676-4.376h23.972 C109.052,150.428,108.968,155.436,108.1,160.408z M54.524,119.864V82.052c0-1.048,0.412-2.008,1.132-2.628 c0.468-0.404,1.024-0.616,1.596-0.616c0.112,0,0.228,0.008,0.34,0.024c6.44,0.96,18.868,2.568,29.724,2.568 s23.284-1.608,29.724-2.568c0.684-0.096,1.376,0.104,1.936,0.592c0.72,0.62,1.132,1.576,1.132,2.628v37.812h-0.004H54.524z M138.224,119.864V80.532c0-0.624,0.252-1.208,0.672-1.568c0.192-0.164,0.488-0.344,0.88-0.344c0.064,0,0.132,0.004,0.2,0.016 c5.396,0.832,19.224,2.764,31.044,2.764c11.816,0,25.644-1.936,31.04-2.764c0.496-0.08,0.856,0.136,1.08,0.328 c0.42,0.36,0.672,0.948,0.672,1.568v39.332h-0.004H138.224z M39.784,56.384H218.54c12.68,0,22.992,14.448,22.992,32.208v53.148 h-2.38c-0.464-12.156-8.52-21.876-18.384-21.876h-14.84V80.532c0-1.252-0.516-2.412-1.412-3.18 c-0.796-0.676-1.788-0.96-2.78-0.816c-5.348,0.824-19.052,2.74-30.72,2.74c-11.672,0-25.372-1.916-30.72-2.74 c-0.992-0.156-1.988,0.136-2.78,0.816c-0.896,0.768-1.412,1.928-1.412,3.18v39.332h-13.876V82.052 c0-1.664-0.68-3.208-1.868-4.232c-1.04-0.896-2.324-1.276-3.632-1.084c-6.384,0.948-18.692,2.54-29.412,2.54 c-10.72,0-23.032-1.592-29.412-2.54c-1.304-0.188-2.592,0.188-3.632,1.084c-1.188,1.024-1.868,2.568-1.868,4.232v37.812H37.56 c-9.864,0-17.92,9.72-18.384,21.876h-2.38V88.592h-0.004C16.792,70.832,27.104,56.384,39.784,56.384z M8.076,145.456h24.286 c-0.599,0.171-1.195,0.341-1.794,0.52c-3.492,1.028-7.104,2.088-10.812,2.552c-5.44,0.676-10.416-0.184-13.672-2.356 c-0.028-0.02-0.052-0.044-0.08-0.064C6.624,145.704,7.324,145.456,8.076,145.456z M33.84,201.944H21.264 c-2.016,0-3.78-1.996-4.488-4.724h21.552C37.624,199.948,35.856,201.944,33.84,201.944z M110.328,193.508h-6.388 c1.544-0.928,3.112-1.82,4.744-2.608c0.652-0.308,1.12-0.388,1.388-0.228c0.164,0.096,0.236,0.284,0.268,0.684 C110.392,192.072,110.344,192.792,110.328,193.508z M124.36,193.504h-13.188c0.016-0.74,0.068-1.476,0.008-2.212 c-0.02-0.292-0.072-0.988-0.676-1.348c-0.8-0.476-1.844,0.028-2.188,0.192c-2.08,1-4.052,2.164-5.984,3.368H82.976 c7.408-3.752,14.356-8.104,20.624-13.08c3.652-2.896,7.928-5.888,12.36-4.816c2.512,0.608,4.552,2.5,6.072,5.616 C123.936,185.132,124.652,189.328,124.36,193.504z M125.196,193.516c0.292-4.308-0.448-8.628-2.408-12.652 c-1.636-3.352-3.868-5.396-6.632-6.068c-4.816-1.168-9.28,1.956-13.084,4.976c-6.664,5.288-14.108,9.856-22.06,13.744H16.44 v-0.092c-0.232,0.064-0.48,0.052-0.724,0.092h-2c-0.332-0.052-0.672-0.06-0.992-0.164v0.164H8.076 c-2.404-0.008-4.36-2.332-4.36-5.196v-12.736c13.72,0.032,27.196-0.316,40.26-1.164l0.352-0.024 c4.816-0.312,9.792-0.644,14.932,0.132c4.544,0.68,8.068,2.424,8.388,3.564c0.04,0.148,0.048,0.344-0.26,0.604 c-0.736,0.612-2.528,0.984-4.156,1.284c-15.6,2.888-35.04,3.788-54.752,2.536c-0.252-0.02-0.436,0.164-0.452,0.396 c-0.016,0.232,0.164,0.436,0.396,0.452c5.816,0.368,11.604,0.552,17.284,0.552c13.632,0,26.616-1.052,37.672-3.1 c1.808-0.336,3.652-0.724,4.544-1.468c0.496-0.412,0.684-0.94,0.532-1.48c-0.516-1.84-5.02-3.568-9.08-4.176 c-5.224-0.78-10.256-0.452-15.112-0.136l-0.352,0.02c-13.048,0.848-26.504,1.192-40.208,1.164v-4.296 c1.028,0.096,2.068,0.212,3.048,0.252c10.368,0.416,20.388,0.272,29.78-0.436c1.4-0.104,2.796-0.224,4.188-0.34 c5.216-0.44,10.6-0.9,16.492-0.66c7.164,0.292,16.044,1.996,19.152,4.692c1.168,1.016,1.264,2.012,1.216,2.764 c-0.304,4.968-8.02,9.124-20.14,10.844c-12.276,1.744-28.76,0.904-43.012-2.2c-0.224-0.052-0.452,0.096-0.504,0.324 c-0.048,0.228,0.096,0.456,0.324,0.504c9.396,2.044,19.756,3.112,29.268,3.112c5.004,0,9.776-0.296,14.044-0.904 c12.54-1.78,20.536-6.236,20.868-11.632c0.052-0.872-0.044-2.184-1.508-3.456c-3.256-2.828-12.36-4.604-19.672-4.9 c-5.924-0.24-11.352,0.22-16.596,0.664c-1.392,0.12-2.78,0.236-4.18,0.34c-9.356,0.704-19.344,0.852-29.684,0.436 c-1.036-0.04-2.056-0.144-3.08-0.236v-10.948c1.54-0.076,3.084-0.16,4.608-0.244l44.184-2.524 c6.052-0.344,12.908-0.74,19.12,0.712c6.72,1.568,11.864,5.432,13.112,9.84c0.052,0.188,0.224,0.308,0.408,0.308 c0.04,0,0.076-0.004,0.116-0.016c0.228-0.064,0.356-0.296,0.292-0.524c-1.612-5.704-8.152-9.132-13.736-10.436 c-6.336-1.48-13.26-1.08-19.36-0.732l-44.184,2.524c-1.512,0.088-3.036,0.164-4.564,0.244v-7.172c0-1.62,0.64-3.048,1.616-4 c0.096,0.076,0.172,0.164,0.28,0.232c4.688,3.132,10.94,2.908,14.248,2.492c3.776-0.468,7.42-1.54,10.944-2.58 c1.06-0.312,2.12-0.624,3.184-0.92c0.56-0.156,1.128-0.276,1.692-0.416h47.2c2.256,1.208,4.224,2.772,5.6,4.844 c1.184,1.788,1.828,3.816,2.456,5.784c0.648,2.032,1.312,4.136,2.58,6.028c1.54,2.304,4.776,4.164,7.864,4.524 c0.38,0.044,0.752,0.064,1.112,0.064c1.768,0,3.272-0.536,4.396-1.576c1.38-1.28,1.78-3.028,2.048-4.564 c0.876-5.02,0.972-10.076,0.412-15.1h12.388c-2.116,2.884-3.652,6.04-4.484,9.348c-0.056,0.228,0.08,0.46,0.308,0.516 c0.036,0.008,0.068,0.012,0.104,0.012c0.188,0,0.364-0.128,0.412-0.32c0.856-3.4,2.504-6.624,4.756-9.556h10.352 c-4.4,4.212-4.692,10.316-4.284,16.336c0.456,6.716,1.156,13.504,2.08,20.176c0.54,3.892,1.284,7.78,2.34,11.548H125.196z M237.064,201.944h-12.576c-2.016,0-3.756-2-4.46-4.724h21.528C240.852,199.948,239.084,201.944,237.064,201.944z M250.252,193.508h-3.3c1.86-1.484,4.536-2.476,7.02-2.52C253.208,192.492,251.832,193.508,250.252,193.508z M254.616,158.772 c-3.344,0.168-6.676,0.392-9.972,0.644l-44.096,3.424c-6.336,0.496-12.88,1.004-19.14-0.32 c-6.772-1.432-12.04-5.188-13.424-9.572c-0.068-0.224-0.308-0.348-0.532-0.276c-0.224,0.068-0.348,0.308-0.276,0.532 c1.796,5.664,8.44,8.956,14.06,10.144c6.376,1.352,13.284,0.812,19.38,0.34l44.096-3.424c3.272-0.256,6.584-0.476,9.904-0.648 v10.668c-4.244-1.088-8.62-0.872-11.268-0.556c-4.152,0.504-8.136,1.612-11.984,2.68c-1.16,0.324-2.324,0.644-3.492,0.952 c-9.748,2.568-19.98,4.068-30.408,4.464c-6.892,0.252-23.692-0.04-30.348-8.436c-1.412-1.78-2.236-3.808-3.032-5.772 c-0.824-2.028-1.676-4.128-3.18-6.012c-1.852-2.32-5.568-4.148-9.036-4.448c-2.432-0.208-4.456,0.336-5.848,1.564 c-1.464,1.296-1.82,3.06-2.04,4.612c-0.952,6.792-0.456,13.652,1.476,20.384c0.064,0.224,0.3,0.344,0.524,0.292 c0.224-0.064,0.356-0.3,0.292-0.524c-1.896-6.616-2.384-13.356-1.452-20.032c0.208-1.464,0.512-2.988,1.76-4.092 c1.536-1.36,3.688-1.488,5.212-1.356c3.256,0.28,6.728,1.98,8.448,4.132c1.424,1.788,2.252,3.828,3.056,5.804 c0.82,2.02,1.664,4.104,3.152,5.98c6.648,8.388,22.292,9.088,31.044,8.756c10.488-0.4,20.78-1.912,30.588-4.492 c1.172-0.308,2.336-0.632,3.5-0.956c3.82-1.06,7.768-2.156,11.86-2.652c4.096-0.5,7.924-0.204,11.168,0.688v17.056 c0,0.632-0.108,1.232-0.284,1.796c-3.164-0.028-6.644,1.324-8.708,3.392h-111.4c-1.084-3.796-1.852-7.724-2.4-11.664 c-0.924-6.652-1.62-13.42-2.072-20.116c-0.38-5.616-0.38-11.96,4.476-16.132c0.06-0.052,0.132-0.092,0.192-0.144h40.712 c0.144,0.156,0.264,0.316,0.456,0.472c3.34,2.756,12.5,4.352,19.82,4.5c5.952,0.12,11.344-0.448,16.576-1 c1.388-0.148,2.776-0.292,4.168-0.424c9.316-0.892,19.304-1.236,29.66-1.04c2.524,0.052,5.408,0.16,7.736,0.804 c0.312,0.084,0.576,0.18,0.84,0.272c0.14,0.508,0.236,1.044,0.236,1.608V158.772z"/> <path d="M157.344,188.904c0.136,0.188,0.396,0.232,0.592,0.104c0.192-0.136,0.236-0.4,0.104-0.592 c-2.848-4.036-4.608-8.612-5.084-13.232c-0.108-1.06,0.104-1.688,0.664-1.976c1.46-0.756,3.148,1.364,3.468,1.8 c6.052,8.212,17.788,14.192,32.2,16.408c5.484,0.84,11.028,1.148,16.58,1.148c7.508,0,15.024-0.56,22.392-1.108 c0.232-0.02,0.408-0.22,0.392-0.456c-0.02-0.232-0.248-0.396-0.456-0.392c-12.772,0.956-25.972,1.94-38.784-0.032 c-14.188-2.176-25.724-8.036-31.644-16.068c-1.136-1.536-2.916-2.868-4.54-2.052c-1.34,0.684-1.176,2.292-1.12,2.82 C152.604,180.036,154.412,184.748,157.344,188.904z"/> </g> </g> </g> </g>
</svg>