<!DOCTYPE svg PUBLIC "-//W3C//DTD SVG 1.1//EN" "http://www.w3.org/Graphics/SVG/1.1/DTD/svg11.dtd">
<!-- Uploaded to: SVG Repo, www.svgrepo.com, Transformed by: SVG Repo Mixer Tools -->
<svg fill="#fff" height="800px" width="800px" version="1.1" id="Layer_1" xmlns="http://www.w3.org/2000/svg" xmlns:xlink="http://www.w3.org/1999/xlink" viewBox="0 0 289.06 289.06" xml:space="preserve" stroke="#fff">
<g id="SVGRepo_bgCarrier" stroke-width="0"/>
<g id="SVGRepo_tracerCarrier" stroke-linecap="round" stroke-linejoin="round"/>
<g id="SVGRepo_iconCarrier"> <g> <g> <g> <path d="M27.152,128.638l-1.584,1.584v38.072l1.584,1.584h33.16l1.584-1.584v-38.072l-1.584-1.584H27.152z M58.732,166.71h-0.004 H28.736v-34.904h29.996V166.71z"/> <path d="M56.148,163.982v-0.004l0.528-0.528v-24.916c0-0.292-0.236-0.528-0.528-0.528s-0.528,0.236-0.528,0.528v10.604H31.84 v-13.544h9.028h0.944h6.96c0.292,0,0.528-0.236,0.528-0.528s-0.236-0.528-0.528-0.528h-6.96h-0.944h-9.556l-0.528,0.528v28.388 l0.528,0.528H56.148z M31.84,150.19h23.78v12.732H31.84V150.19z"/> <path d="M82.108,225.354c0.18,0.036,0.356,0.056,0.536,0.056c0.512,0,1.016-0.148,1.452-0.44 c0.588-0.388,0.988-0.984,1.132-1.672c0.144-0.688,0.004-1.396-0.384-1.984c-0.384-0.588-0.976-0.988-1.668-1.132 c-0.696-0.14-1.396-0.004-1.988,0.384c-0.588,0.388-0.988,0.984-1.132,1.672c-0.14,0.692-0.004,1.396,0.384,1.984 C80.824,224.81,81.42,225.21,82.108,225.354z M81.096,222.45c0.084-0.416,0.324-0.772,0.676-1.004 c0.356-0.236,0.788-0.312,1.188-0.228c0.416,0.084,0.772,0.324,1.004,0.68c0.232,0.352,0.316,0.772,0.228,1.188 c-0.084,0.416-0.324,0.772-0.676,1.004c-0.356,0.232-0.784,0.316-1.188,0.228c-0.416-0.084-0.772-0.324-1.004-0.68 C81.092,223.282,81.008,222.862,81.096,222.45z"/> <path d="M142.724,129.042l-1.584,1.584v38.076l1.584,1.584h33.164l1.584-1.584v-38.076l-1.584-1.584H142.724z M174.304,167.114 h-29.996V132.21h29.996V167.114z"/> <path d="M171.724,164.386v-0.004l0.528-0.528v-24.916c0-0.292-0.236-0.528-0.528-0.528c-0.292,0-0.528,0.236-0.528,0.528v10.604 h-23.784v-13.544h9.032h0.944h6.956c0.292,0,0.528-0.236,0.528-0.528s-0.236-0.528-0.528-0.528h-6.956h-0.944h-9.56l-0.528,0.528 v28.388l0.528,0.528H171.724z M147.412,150.594h23.784v12.732h-23.784V150.594z"/> <path d="M85.78,129.042l-1.584,1.584v38.076l1.584,1.584h33.16l1.584-1.584v-38.076l-1.584-1.584H85.78z M117.356,167.114H87.36 V132.21h29.996V167.114z"/> <path d="M114.776,164.386v-0.004l0.528-0.528v-24.916c0-0.292-0.236-0.528-0.528-0.528s-0.528,0.236-0.528,0.528v10.604h-23.78 v-13.544h9.028h0.944h6.96c0.292,0,0.528-0.236,0.528-0.528s-0.236-0.528-0.528-0.528h-6.96h-0.944H89.94l-0.528,0.528v28.388 l0.528,0.528H114.776z M90.472,150.594h23.78v12.732h-23.78V150.594z"/> <path d="M27.152,190.878l-1.584,1.584v38.072l1.584,1.584h33.16l1.584-1.584v-38.072l-1.584-1.584H27.152z M58.732,228.95h-0.004 H28.736v-34.904h29.996V228.95z"/> <path d="M56.148,226.222v-0.004l0.528-0.528v-24.916c0-0.292-0.236-0.528-0.528-0.528s-0.528,0.236-0.528,0.528v10.604H31.84 v-13.544h9.028h0.944h6.96c0.292,0,0.528-0.236,0.528-0.528s-0.236-0.528-0.528-0.528h-6.96h-0.944h-9.556l-0.528,0.528v28.388 l0.528,0.528H56.148z M31.84,212.43h23.78v12.732H31.84V212.43z"/> <path d="M60.2,115.83l1.584-1.584V76.17L60.2,74.586H27.036l-1.584,1.584v38.076l1.584,1.584H60.2z M28.616,77.758h29.996v34.904 H28.616V77.758z"/> <path d="M56.036,83.958c-0.292,0-0.528,0.236-0.528,0.528V95.09H31.724V81.542h9.032H41.7h6.956c0.292,0,0.528-0.236,0.528-0.528 c0-0.292-0.236-0.528-0.528-0.528H41.7h-0.944h-9.56l-0.528,0.528v28.388l0.528,0.528h24.84l0.528-0.528V84.486 C56.564,84.194,56.328,83.958,56.036,83.958z M55.508,108.874H31.724V96.142h23.784V108.874z"/> <path d="M175.772,116.234l1.584-1.584V76.574l-1.584-1.584h-33.164l-1.584,1.584v38.076l1.584,1.584H175.772z M144.192,78.162 h29.996v34.904h-29.996V78.162z"/> <path d="M171.612,84.362c-0.292,0-0.528,0.236-0.528,0.528v10.604H147.3V81.95h9.032h0.944h6.956 c0.292,0,0.528-0.236,0.528-0.528s-0.236-0.528-0.528-0.528h-6.956h-0.944h-9.56l-0.528,0.528v28.388l0.528,0.528h24.84 l0.528-0.528V84.894C172.14,84.598,171.904,84.362,171.612,84.362z M171.084,109.282H147.3V96.55h23.784V109.282z"/> <path d="M118.828,116.234l1.584-1.584V76.574l-1.584-1.584H85.664l-1.584,1.584v38.076l1.584,1.584H118.828z M87.248,78.162 h29.996v34.904H87.248V78.162z"/> <path d="M114.664,84.362c-0.292,0-0.528,0.236-0.528,0.528v10.604H90.352V81.95h9.032h0.944h6.956 c0.292,0,0.528-0.236,0.528-0.528s-0.236-0.528-0.528-0.528h-6.956h-0.944h-9.56l-0.528,0.528v28.388l0.528,0.528h24.84 l0.528-0.528V84.894C115.192,84.598,114.956,84.362,114.664,84.362z M114.136,109.282H90.352V96.55h23.784V109.282z"/> <path d="M288.54,177.642c-7.644-8.928-17.592-14.892-29.572-17.728c-10.924-2.588-21.976-2.012-32.892,1.704 c0.632-4.372,1.196-11.524,0.732-12.884l-0.624-1.836l-1.48,1.26c-1.14,0.972-9.948,12.852-13.748,18.3 c-4.52-1.572-13.66-4.516-18.124-5.768V62.45h4.24l1.848-1.848V49.49l-1.848-1.848h-13.664l-2.252-13.12l9.596-9.352 c0.504-0.492,0.684-1.224,0.464-1.896c-0.22-0.668-0.796-1.156-1.492-1.256L176.46,20.09l-5.932-12.016 c-0.62-1.26-2.688-1.26-3.316,0l-5.928,12.016l-13.264,1.928c-0.592,0.084-1.048,0.484-1.32,1.004 c-0.272-0.516-0.732-0.916-1.32-1.004l-13.264-1.928l-5.928-12.016c-0.312-0.632-0.956-1.032-1.66-1.032 c-0.704,0-1.348,0.4-1.656,1.028l-5.932,12.016l-13.264,1.928c-0.588,0.084-1.044,0.484-1.32,1c-0.272-0.516-0.728-0.916-1.32-1 l-13.264-1.928L81.84,8.07c-0.62-1.26-2.688-1.26-3.316,0l-5.928,12.016l-13.264,1.928c-0.592,0.084-1.048,0.484-1.32,1.004 c-0.272-0.516-0.732-0.916-1.32-1.004l-13.264-1.928L37.5,8.07c-0.312-0.632-0.956-1.032-1.66-1.032 c-0.704,0-1.348,0.4-1.656,1.028l-5.932,12.016L14.988,22.01c-0.696,0.1-1.272,0.588-1.492,1.256 c-0.22,0.668-0.036,1.404,0.464,1.896l9.6,9.352l-2.252,13.12H4.172L2.336,49.49v11.112l1.848,1.848h4.24v206.12H1.848L0,270.418 v9.756l1.848,1.848h197.56l0.088-0.088h49.32l0.696-0.26c7.576-6.64,5.244-12.748,3.884-15.068 c-1.916-3.284-5.58-5.584-7.632-4.876c-0.024,0.012-0.12-0.008-0.184-0.028c2.108-3.756,0.376-9.136-2.512-12.048 c-1.636-1.656-3.5-2.388-5.296-2.32c-2.608-17.484-10.476-44.844-15.512-61.232c0.16-0.1,0.344-0.148,0.492-0.26 c0.504-0.392,0.9-0.876,1.24-1.396c6.164,7.316,15.78,21.36,30.792,47.208c2.892,4.988,2.888,4.98,4.012,4.508l0.664-0.284 l0.12-0.716c2.06-12.432,0.048-24.54-5.98-35.992c-5.164-9.812-12.624-17.54-22.728-23.52c4.04-0.404,8.24-0.684,12.428-0.58 c9.504,0.244,27.168,2.592,36.66,3.852c8.404,1.116,8.384,1.108,8.804,0.068l0.296-0.74L288.54,177.642z M241.564,251.138 c2.392,2.412,3.796,6.872,2.084,9.672c-0.436,0.716-0.396,1.512,0.104,2.132c0.592,0.728,1.82,1.084,2.652,0.792 c0.72-0.26,3.464,1.016,5.164,3.932c1.336,2.28,2.668,6.86-3.16,12.148H238.5c0.26-3.72,0.396-7.46,0.436-11.204 c0.048-0.08,0.12-0.144,0.136-0.24c0.032-0.188-0.032-0.364-0.124-0.52c0.028-4.612-0.1-9.224-0.412-13.8 c-0.096-1.412-0.276-2.992-0.488-4.636C239.568,249.478,240.832,250.394,241.564,251.138z M226.288,164.37 c10.664-3.748,21.448-4.408,32.068-1.888c4.588,1.088,8.848,2.68,12.792,4.716c-14.772-4.544-30.64-5.176-45.996-1.78 C225.536,165.074,225.892,164.702,226.288,164.37z M211.02,169.278l0.956,0.344l0.576-0.84c2.88-4.208,8.588-11.92,11.732-15.992 c-0.172,3.252-0.636,8.044-1.184,10.548l-0.096,0.428c-3.464,3.12-6.62,6.56-10,9.772c-5.336-1.32-10.524-3.148-15.928-4.184 c-1.208-1.424-2.984-4.004-4.188-5.92C197.38,164.75,206.248,167.57,211.02,169.278z M170.744,209.622v12.732h-23.78v-4.072 c1.468-0.8,5.204-2.92,15.04-8.66H170.744z M163.808,208.566c2.06-1.204,4.364-2.552,6.936-4.06v4.06H163.808z M146.96,206.73 v-11.708h6.5c-1.92,2.744-3.736,5.616-5.332,8.772C147.768,204.514,147.368,205.562,146.96,206.73z M147.34,215.066 c0.696-3,2.04-7.888,3.152-10.08c9.236-18.296,24.176-29.344,44.396-32.832l1.436-0.264c0.816,0.156,1.62,0.348,2.424,0.536 c-19.22,7.308-35.236,21.14-45.528,39.252C150.708,213.134,148.692,214.298,147.34,215.066z M154.232,193.97h-7.796l-0.528,0.528 v15.596c-0.956,3.316-1.72,6.676-1.668,7.512l0.104,1.64l1.56-0.452v4.088l0.528,0.528h24.836l0.528-0.528v-18.996 c0.664-0.388,1.356-0.796,2.056-1.208v23.46h-29.996v-34.904h12.364C155.52,192.098,154.896,193.058,154.232,193.97z M155.084,210.598c10.456-17.548,26.396-30.9,45.44-37.76c3.04,0.78,6.044,1.692,9.068,2.528 c-6.496,3.84-11.936,9.024-17.236,14.412c-1.092,0.516-2.16,1-3.188,1.46c-2.304,1.036-4.48,2.008-6.544,3.228 C170.916,201.354,161.552,206.838,155.084,210.598z M193.504,193.602c0.16-0.344,0.292-0.7,0.48-1.236l0.284-0.772 c3.936-4,7.944-7.88,12.412-11.176c-0.932,1.268-1.664,2.864-2.06,4.68c-0.052,0.244-0.056,0.484-0.096,0.728 c-11.708,14.576-14.108,32.112-6.82,49.88c-0.292,3.672-0.568,7.516-0.828,11.54C193.168,235.798,186.344,208.93,193.504,193.602 z M204.352,187.778c-0.004,0.556,0,1.108,0.076,1.632c-2.732,9.596-4.88,24.132-6.528,43.96 C191.904,217.162,194.18,201.246,204.352,187.778z M206.116,193.398c0.776,0.94,1.712,1.616,2.828,1.828 c0.1,0.02,0.2,0.016,0.296,0.028c0.164,0.796,0.316,1.5,0.444,2.012c2.64,10.672,4.116,21.86,4.488,33.812 c-0.092-0.024-0.184-0.076-0.272-0.092c-2.848-0.604-5.688,0.88-7.624,3.896c-0.244-0.428-0.504-0.932-0.68-1.276 c-0.38-0.736-0.704-1.368-0.988-1.736c-1.024-1.32-2.28-2.308-3.648-3.132C202.484,212.294,204.284,201.058,206.116,193.398z M209.436,192.63c-0.608-0.116-1.132-0.504-1.56-1.152c-0.904-1.364-1.16-3.596-0.676-5.816c0.696-3.172,2.824-5.692,4.704-5.692 c0.128,0,0.252,0.012,0.376,0.036c0.608,0.116,1.132,0.504,1.56,1.152c0.904,1.368,1.16,3.596,0.672,5.812 C213.768,190.358,211.384,192.982,209.436,192.63z M211.396,177.366c0.036-0.02,0.068-0.04,0.104-0.06 c-0.004,0.016-0.008,0.032-0.008,0.048C211.46,177.358,211.428,177.362,211.396,177.366z M193.94,169.638 c-14.2,2.544-25.812,8.78-34.836,18.428h-16.828l-1.584,1.584v38.072l1.584,1.584h33.164l1.584-1.584v-26.9 c2.164-1.272,4.468-2.624,6.944-4.084c1.94-1.14,4.048-2.088,6.288-3.092l0.436-0.196c-3.74,8.892-3.376,21.004-1.648,32.088 l-0.004-0.004l0.1,42.676h-63.676v-86.676l-1.848-1.848h-45.98l-1.848,1.848v86.676H12.12V62.45h177.012v97.632l-0.332-0.004 l0.22,1.52C189.184,162.746,191.948,166.962,193.94,169.638z M121.772,183.382v84.032H79.484v-84.032H121.772z M162.776,23.602 c0.604-0.088,1.124-0.464,1.392-1.012l4.7-9.528l4.708,9.532c0.264,0.544,0.784,0.924,1.388,1.008l10.516,1.528l-7.612,7.416 c-0.432,0.424-0.632,1.036-0.532,1.636l1.796,10.476l-9.412-4.944c-0.268-0.14-0.564-0.212-0.86-0.212 c-0.296,0-0.588,0.072-0.86,0.212l-9.408,4.944l1.796-10.476c0.1-0.6-0.1-1.212-0.532-1.636l-7.612-7.416L162.776,23.602z M176.864,47.642h-15.992l7.996-4.2L176.864,47.642z M146.404,25.166c0.148-0.144,0.204-0.34,0.296-0.516 c0.092,0.176,0.148,0.372,0.296,0.516l9.596,9.352l-2.252,13.12h-15.28l-2.252-13.12L146.404,25.166z M118.432,23.602 c0.604-0.088,1.124-0.464,1.388-1.008l4.708-9.532l4.7,9.528c0.268,0.544,0.788,0.924,1.392,1.012l10.516,1.528l-7.612,7.416 c-0.432,0.424-0.632,1.036-0.532,1.636l1.796,10.476l-9.408-4.944c-0.54-0.284-1.18-0.284-1.716,0l-9.408,4.944l1.796-10.476 c0.1-0.6-0.1-1.212-0.536-1.636l-7.612-7.416L118.432,23.602z M132.524,47.642h-15.988l7.996-4.2L132.524,47.642z M102.068,25.166c0.148-0.144,0.204-0.336,0.292-0.516c0.092,0.176,0.148,0.372,0.296,0.516l9.596,9.352L110,47.638H94.716 l-2.248-13.12L102.068,25.166z M74.096,23.602c0.604-0.088,1.124-0.464,1.392-1.012l4.7-9.528l4.708,9.532 c0.268,0.544,0.784,0.924,1.388,1.008L96.8,25.13l-7.612,7.416c-0.432,0.424-0.632,1.036-0.532,1.636l1.796,10.476l-9.412-4.944 c-0.268-0.14-0.564-0.212-0.86-0.212c-0.296,0-0.588,0.072-0.86,0.212l-9.408,4.944l1.796-10.476c0.1-0.6-0.1-1.212-0.532-1.636 l-7.612-7.416L74.096,23.602z M88.184,47.642H72.196l7.996-4.2L88.184,47.642z M57.724,25.166 c0.148-0.144,0.204-0.34,0.296-0.516c0.092,0.176,0.148,0.372,0.296,0.516l9.596,9.352l-2.252,13.12H50.38l-2.252-13.12 L57.724,25.166z M19.236,25.134l10.516-1.528c0.604-0.088,1.12-0.464,1.388-1.008l4.708-9.532l4.7,9.528 c0.268,0.544,0.788,0.924,1.392,1.012l10.516,1.528l-7.612,7.416c-0.432,0.424-0.632,1.036-0.532,1.636l1.796,10.476L36.7,39.718 c-0.268-0.14-0.564-0.212-0.86-0.212c-0.296,0-0.588,0.072-0.86,0.212l-9.408,4.944l1.796-10.476c0.1-0.6-0.1-1.212-0.536-1.636 L19.236,25.134z M43.848,47.638H27.856l7.996-4.2L43.848,47.638z M6.036,58.754v-7.416H195.22v7.416H6.036z M197.56,278.326 H3.696v-6.06H197.56V278.326z M211.028,279.814h-9.776v-9.396l-1.848-1.848h-6.576v-25.868c1.9,6.708,3.688,11.276,4.04,11.608 l1.5,1.416l0.66-1.956c0.1-0.3,0.128-0.592,0.368-4.46c0.416-6.656,0.872-12.668,1.356-18.16 c0.804,0.572,1.568,1.204,2.196,2.012c0.2,0.26,0.472,0.812,0.78,1.408c1.048,2.036,1.644,3.1,2.656,3.1 c0.484,0,0.912-0.276,1.148-0.736c1.472-2.86,3.736-4.356,5.94-3.884c0.276,0.056,0.508,0.216,0.756,0.336 c0.108,5.724-0.004,11.608-0.4,17.724C213.164,261.358,212.496,270.594,211.028,279.814z M235.932,278.85h-22.08 c0.512-3.428,0.904-6.88,1.252-10.368c6.676-0.824,13.896-0.72,21.152,0.304C236.22,272.146,236.152,275.506,235.932,278.85z M235.912,254.234c0.292,4.3,0.412,8.632,0.4,12.964c-7.204-0.996-14.376-1.108-21.044-0.324 c0.472-5.016,0.836-10.144,1.188-15.568c6.052-1.128,12.62-1.232,19.156-0.264C235.74,252.162,235.844,253.234,235.912,254.234z M235.396,249.422c-6.42-0.896-12.872-0.8-18.864,0.272c0.268-4.632,0.404-9.156,0.384-13.564 c5.06-1.304,10.52-1.616,15.908-0.916C233.952,240.414,234.844,245.242,235.396,249.422z M232.46,233.59 c-5.276-0.62-10.6-0.308-15.576,0.928c-0.052-4.028-0.2-7.984-0.5-11.848c4.272-0.824,8.836-0.948,13.384-0.348 C230.74,226.154,231.648,229.942,232.46,233.59z M229.356,220.686c-4.456-0.532-8.924-0.392-13.124,0.404 c-0.26-3.028-0.608-6.008-1.024-8.948c0.044-0.008,0.088-0.008,0.132-0.02c3.644-1.22,7.572-1.596,11.432-1.164 C227.652,214.17,228.524,217.434,229.356,220.686z M223.492,199.382c0.928,3.192,1.88,6.528,2.828,9.948 c-3.832-0.34-7.708,0.056-11.328,1.244c-0.52-3.432-1.156-6.804-1.888-10.128c3.312-1.136,6.848-1.524,10.272-1.036 C223.42,199.418,223.452,199.382,223.492,199.382z M223.032,197.802c-3.44-0.404-6.952-0.02-10.276,1.096 c-0.176-0.752-0.324-1.516-0.508-2.264c-0.112-0.452-0.248-1.076-0.396-1.788c2.388-1.024,4.452-3.744,5.232-7.308 c0.068-0.308,0.08-0.612,0.124-0.92c0.368,0.124,0.732,0.292,1.112,0.344c0.296,0.04,0.588,0.06,0.88,0.06 c0.196,0,0.372-0.072,0.564-0.088C220.768,190.182,221.872,193.838,223.032,197.802z M221.14,183.75 c-0.852,0.656-1.816,0.684-2.464,0.596c-0.468-0.064-0.92-0.236-1.36-0.452c-0.124-1.588-0.532-3.052-1.28-4.188 c-0.528-0.804-1.216-1.336-1.96-1.74c0.124-0.868,0.476-1.64,1.144-2.156c0.636-0.492,1.34-0.632,1.928-0.632 c0.188,0,0.368,0.016,0.528,0.036c1.32,0.18,2.608,0.984,3.528,2.212C222.848,179.618,222.82,182.454,221.14,183.75z M257.468,231.018c-0.128-0.22-0.264-0.452-0.4-0.692c-14.18-24.408-24.676-40.352-32.088-48.7 c0.18-1.724-0.26-3.588-1.328-5.248c0.636,0.06,1.276,0.116,1.912,0.212c16.364,12.58,27.62,30.528,32.112,51.004 C257.636,228.734,257.58,229.874,257.468,231.018z M251.268,200.398c3.756,7.132,5.856,14.532,6.332,22.1 c-4.996-18.068-15.412-33.868-29.868-45.5c0.06,0.012,0.12,0.02,0.18,0.036C238.396,182.89,246.076,190.534,251.268,200.398z M280.308,176.302c-10.212-1.356-27.3-3.624-36.944-3.872c-5.808-0.144-11.556,0.42-16.912,1.048l-2.356,0.28 c-1.124-0.108-2.248-0.18-3.376-0.212c-0.848-0.488-1.752-0.828-2.688-0.956c-0.1-0.012-0.192-0.004-0.292-0.012 c1.924-1.94,3.872-3.856,5.86-5.728c17.456-4.232,35.684-3.168,52.2,3.028c3.036,1.996,5.848,4.308,8.412,6.936 C283.076,176.67,281.732,176.49,280.308,176.302z"/> </g> </g> </g> </g>
</svg>